<svg width="35" height="28" viewBox="0 0 35 28" fill="none" xmlns="http://www.w3.org/2000/svg">
<path d="M34.1223 0.0155966C32.6371 1.06327 30.9926 1.86458 29.2522 2.38865C28.318 1.31459 27.0766 0.553321 25.6957 0.207808C24.3149 -0.137705 22.8612 -0.0507937 21.5313 0.456788C20.2015 0.96437 19.0596 1.86813 18.2601 3.04584C17.4606 4.22355 17.0421 5.61839 17.0612 7.0417V8.59271C14.3355 8.66339 11.6346 8.05887 9.19909 6.833C6.76358 5.60713 4.66905 3.79796 3.10203 1.56661C3.10203 1.56661 -3.10203 15.5258 10.8571 21.7298C7.66284 23.8981 3.85762 24.9853 0 24.8318C13.9591 32.5869 31.0203 24.8318 31.0203 6.99517C31.0189 6.56314 30.9773 6.13217 30.8962 5.70782C32.4792 4.14672 33.5963 2.17572 34.1223 0.0155966Z" fill="white"/>
</svg>
