<svg width="39" height="28" viewBox="0 0 39 28" fill="none" xmlns="http://www.w3.org/2000/svg">
<path d="M37.7045 4.72639C37.4993 3.89755 37.0815 3.13813 36.4932 2.52484C35.9048 1.91155 35.1669 1.46611 34.3538 1.23351C31.383 0.5 19.5 0.5 19.5 0.5C19.5 0.5 7.61698 0.5 4.64623 1.30336C3.83315 1.53596 3.09518 1.9814 2.50685 2.59469C1.91851 3.20798 1.50066 3.9674 1.29549 4.79625C0.751799 7.84476 0.48585 10.9373 0.500987 14.0349C0.481607 17.1559 0.747573 20.272 1.29549 23.3435C1.52168 24.1466 1.9489 24.8771 2.53586 25.4645C3.12282 26.0519 3.84969 26.4763 4.64623 26.6966C7.61698 27.5 19.5 27.5 19.5 27.5C19.5 27.5 31.383 27.5 34.3538 26.6966C35.1669 26.464 35.9048 26.0186 36.4932 25.4053C37.0815 24.792 37.4993 24.0326 37.7045 23.2038C38.244 20.1782 38.5099 17.1093 38.499 14.0349C38.5184 10.914 38.2524 7.79786 37.7045 4.72639Z" fill="white" stroke="white" stroke-linecap="round" stroke-linejoin="round"/>
<path d="M14.5 19.0702C14.5 19.0779 14.5083 19.0827 14.5149 19.0789L23.7932 13.8024C23.8 13.7986 23.8 13.7888 23.7932 13.785L14.5149 8.5085C14.5083 8.50471 14.5 8.50952 14.5 8.51719V19.0702Z" fill="#C3C3C3"/>
</svg>
